<svg width="264" height="380" viewBox="0 0 264 380" fill="none" xmlns="http://www.w3.org/2000/svg">
<circle cx="15" cy="15" r="15" fill="#47509A"/>
<circle cx="15" cy="215" r="15" fill="#06B4DB"/>
<circle cx="15" cy="115" r="15" fill="#47509A"/>
<circle cx="15" cy="315" r="15" fill="#47509A"/>
<circle cx="115" cy="15" r="15" fill="#47509A"/>
<circle cx="215" cy="15" r="15" fill="#47509A"/>
<circle cx="115" cy="215" r="15" fill="#47509A"/>
<circle cx="215" cy="215" r="15" fill="#47509A"/>
<circle cx="115" cy="115" r="15" fill="#47509A"/>
<circle cx="215" cy="115" r="15" fill="#47509A"/>
<circle cx="115" cy="315" r="15" fill="#47509A"/>
<circle cx="215" cy="315" r="15" fill="#47509A"/>
<circle cx="15" cy="65" r="15" fill="#47509A"/>
<circle cx="15" cy="265" r="15" fill="#06B4DB"/>
<circle cx="15" cy="165" r="15" fill="#06B4DB"/>
<circle cx="15" cy="365" r="15" fill="#47509A"/>
<circle cx="115" cy="65" r="15" fill="#47509A"/>
<circle cx="215" cy="65" r="15" fill="#47509A"/>
<circle cx="115" cy="265" r="15" fill="#06B4DB"/>
<circle cx="215" cy="265" r="15" fill="#47509A"/>
<circle cx="115" cy="165" r="15" fill="#47509A"/>
<circle cx="215" cy="165" r="15" fill="#47509A"/>
<circle cx="115" cy="365" r="15" fill="#47509A"/>
<circle cx="215" cy="365" r="15" fill="#47509A"/>
<circle cx="65" cy="15" r="15" fill="#47509A"/>
<circle cx="65" cy="215" r="15" fill="#06B4DB"/>
<circle cx="65" cy="115" r="15" fill="#47509A"/>
<circle cx="65" cy="315" r="15" fill="#47509A"/>
<circle cx="165" cy="15" r="15" fill="#47509A"/>
<circle cx="265" cy="15" r="15" fill="#47509A"/>
<circle cx="165" cy="215" r="15" fill="#47509A"/>
<circle cx="265" cy="215" r="15" fill="#47509A"/>
<circle cx="165" cy="115" r="15" fill="#47509A"/>
<circle cx="265" cy="115" r="15" fill="#47509A"/>
<circle cx="165" cy="315" r="15" fill="#47509A"/>
<circle cx="265" cy="315" r="15" fill="#47509A"/>
<circle cx="65" cy="65" r="15" fill="#47509A"/>
<circle cx="65" cy="265" r="15" fill="#06B4DB"/>
<circle cx="65" cy="165" r="15" fill="#47509A"/>
<circle cx="65" cy="365" r="15" fill="#47509A"/>
<circle cx="165" cy="65" r="15" fill="#47509A"/>
<circle cx="265" cy="65" r="15" fill="#47509A"/>
<circle cx="165" cy="265" r="15" fill="#47509A"/>
<circle cx="265" cy="265" r="15" fill="#47509A"/>
<circle cx="165" cy="165" r="15" fill="#47509A"/>
<circle cx="265" cy="165" r="15" fill="#47509A"/>
<circle cx="165" cy="365" r="15" fill="#47509A"/>
<circle cx="265" cy="365" r="15" fill="#47509A"/>
</svg>
