<svg width="413" height="312" viewBox="0 0 413 312" fill="none" xmlns="http://www.w3.org/2000/svg">
<rect y="102" width="330" height="210" fill="#CCA43B"/>
<path d="M148 4L113 39M113 4L148 39" stroke="#F0F0F0" stroke-width="10"/>
<path d="M149 134L114 169M114 134L149 169" stroke="#F0F0F0" stroke-width="10"/>
<path d="M148 69L113 104M113 69L148 104" stroke="#F0F0F0" stroke-width="10"/>
<path d="M149 199L114 234M114 199L149 234" stroke="#F0F0F0" stroke-width="10"/>
<path d="M213 4L178 39M178 4L213 39" stroke="#F0F0F0" stroke-width="10"/>
<path d="M214 134L179 169M179 134L214 169" stroke="#F0F0F0" stroke-width="10"/>
<path d="M213 69L178 104M178 69L213 104" stroke="#F0F0F0" stroke-width="10"/>
<path d="M214 199L179 234M179 199L214 234" stroke="#F0F0F0" stroke-width="10"/>
<path d="M278 4L243 39M243 4L278 39" stroke="#F0F0F0" stroke-width="10"/>
<path d="M279 134L244 169M244 134L279 169" stroke="#F0F0F0" stroke-width="10"/>
<path d="M278 69L243 104M243 69L278 104" stroke="#F0F0F0" stroke-width="10"/>
<path d="M279 199L244 234M244 199L279 234" stroke="#F0F0F0" stroke-width="10"/>
<path d="M343 4L308 39M308 4L343 39" stroke="#F0F0F0" stroke-width="10"/>
<path d="M344 134L309 169M309 134L344 169" stroke="#F0F0F0" stroke-width="10"/>
<path d="M343 69L308 104M308 69L343 104" stroke="#F0F0F0" stroke-width="10"/>
<path d="M344 199L309 234M309 199L344 234" stroke="#F0F0F0" stroke-width="10"/>
<path d="M408 4L373 39M373 4L408 39" stroke="#F0F0F0" stroke-width="10"/>
<path d="M409 134L374 169M374 134L409 169" stroke="#F0F0F0" stroke-width="10"/>
<path d="M408 69L373 104M373 69L408 104" stroke="#F0F0F0" stroke-width="10"/>
<path d="M409 199L374 234M374 199L409 234" stroke="#F0F0F0" stroke-width="10"/>
<path d="M279 69L244 104M244 69L279 104" stroke="#F0F0F0" stroke-width="10"/>
<path d="M280 199L245 234M245 199L280 234" stroke="#F0F0F0" stroke-width="10"/>
<path d="M408 69L373 104M373 69L408 104" stroke="#F0F0F0" stroke-width="10"/>
<path d="M409 199L374 234M374 199L409 234" stroke="#F0F0F0" stroke-width="10"/>
</svg>
